<?xml version="1.0" encoding="UTF-8"?>
<svg xmlns="http://www.w3.org/2000/svg" xmlns:xlink="http://www.w3.org/1999/xlink" viewBox="0 0 1000 500" version="1.1">
  <path d="M-104,-104L33,-100L182,-114Z" fill="#ece6f2" stroke="#ece6f2" stroke-width="1.51" />
  <path d="M228,594L-27,584L273,597Z" fill="#ad687e" stroke="#ad687e" stroke-width="1.51" />
  <path d="M273,597L-27,584L414,608Z" fill="#a9607a" stroke="#a9607a" stroke-width="1.51" />
  <path d="M182,-114L439,-108L805,-104Z" fill="#ebb1d5" stroke="#ebb1d5" stroke-width="1.51" />
  <path d="M439,-108L635,-80L805,-104Z" fill="#f39dc3" stroke="#f39dc3" stroke-width="1.51" />
  <path d="M815,576L667,608L898,586Z" fill="#a40944" stroke="#a40944" stroke-width="1.51" />
  <path d="M805,-104L858,-97L927,-98Z" fill="#e28e9f" stroke="#e28e9f" stroke-width="1.51" />
  <path d="M898,586L667,608L941,593Z" fill="#9e063e" stroke="#9e063e" stroke-width="1.51" />
  <path d="M1030,-13L1037,53L1084,-38Z" fill="#b77387" stroke="#b77387" stroke-width="1.51" />
  <path d="M1031,427L1093,519L1110,416Z" fill="#9e063f" stroke="#9e063f" stroke-width="1.51" />
  <path d="M1040,565L941,593L1111,582Z" fill="#830033" stroke="#830033" stroke-width="1.51" />
  <path d="M1093,519L1040,565L1111,582Z" fill="#810032" stroke="#810032" stroke-width="1.51" />
  <path d="M1110,416L1093,519L1111,582Z" fill="#8b0137" stroke="#8b0137" stroke-width="1.51" />
  <path d="M1072,237L1084,315L1112,338Z" fill="#ac2961" stroke="#ac2961" stroke-width="1.51" />
  <path d="M1031,427L1110,416L1112,338Z" fill="#a70d4b" stroke="#a70d4b" stroke-width="1.51" />
  <path d="M1084,315L1031,427L1112,338Z" fill="#ad1255" stroke="#ad1255" stroke-width="1.51" />
  <path d="M1110,416L1111,582L1112,338Z" fill="#9b063c" stroke="#9b063c" stroke-width="1.51" />
  <path d="M1084,-38L1037,53L1116,81Z" fill="#af6c80" stroke="#af6c80" stroke-width="1.51" />
  <path d="M1072,237L1112,338L1116,81Z" fill="#a7406b" stroke="#a7406b" stroke-width="1.51" />
  <path d="M1083,132L1072,237L1116,81Z" fill="#a45373" stroke="#a45373" stroke-width="1.51" />
  <path d="M182,-114L805,-104L1119,-103Z" fill="#f398b7" stroke="#f398b7" stroke-width="1.51" />
  <path d="M805,-104L927,-98L1119,-103Z" fill="#d28799" stroke="#d28799" stroke-width="1.51" />
  <path d="M927,-98L1005,-89L1119,-103Z" fill="#c68392" stroke="#c68392" stroke-width="1.51" />
  <path d="M1005,-89L1084,-38L1119,-103Z" fill="#bc7d8a" stroke="#bc7d8a" stroke-width="1.51" />
  <path d="M1084,-38L1116,81L1119,-103Z" fill="#b17482" stroke="#b17482" stroke-width="1.51" />
  <path d="M1023,142L1072,237L1083,132Z" fill="#aa5076" stroke="#aa5076" stroke-width="1.51" />
  <path d="M1037,53L1083,132L1116,81Z" fill="#aa607b" stroke="#aa607b" stroke-width="1.51" />
  <path d="M999,340L1031,427L1084,315Z" fill="#b31259" stroke="#b31259" stroke-width="1.51" />
  <path d="M1023,142L1013,232L1072,237Z" fill="#b04875" stroke="#b04875" stroke-width="1.51" />
  <path d="M1037,53L1023,142L1083,132Z" fill="#ad5e7d" stroke="#ad5e7d" stroke-width="1.51" />
  <path d="M1035,303L999,340L1084,315Z" fill="#b52163" stroke="#b52163" stroke-width="1.51" />
  <path d="M1072,237L1035,303L1084,315Z" fill="#b02e66" stroke="#b02e66" stroke-width="1.51" />
  <path d="M1000,519L1040,565L1093,519Z" fill="#8c003b" stroke="#8c003b" stroke-width="1.51" />
  <path d="M1031,427L1000,519L1093,519Z" fill="#9a0340" stroke="#9a0340" stroke-width="1.51" />
  <path d="M1005,-89L1030,-13L1084,-38Z" fill="#be7d8d" stroke="#be7d8d" stroke-width="1.51" />
  <path d="M1013,232L1035,303L1072,237Z" fill="#b3376e" stroke="#b3376e" stroke-width="1.51" />
  <path d="M702,592L667,608L815,576Z" fill="#a90f4e" stroke="#a90f4e" stroke-width="1.51" />
  <path d="M957,144L1013,232L1023,142Z" fill="#b4527d" stroke="#b4527d" stroke-width="1.51" />
  <path d="M967,39L957,144L1023,142Z" fill="#b86186" stroke="#b86186" stroke-width="1.51" />
  <path d="M1005,-89L950,-30L1030,-13Z" fill="#c57f92" stroke="#c57f92" stroke-width="1.51" />
  <path d="M971,487L1000,519L1031,427Z" fill="#a40446" stroke="#a40446" stroke-width="1.51" />
  <path d="M1030,-13L967,39L1037,53Z" fill="#bb7189" stroke="#bb7189" stroke-width="1.51" />
  <path d="M967,39L1023,142L1037,53Z" fill="#b66685" stroke="#b66685" stroke-width="1.51" />
  <path d="M1000,519L941,593L1040,565Z" fill="#8e003b" stroke="#8e003b" stroke-width="1.51" />
  <path d="M999,340L945,342L1031,427Z" fill="#b9125d" stroke="#b9125d" stroke-width="1.51" />
  <path d="M1013,232L926,267L1035,303Z" fill="#bb3672" stroke="#bb3672" stroke-width="1.51" />
  <path d="M926,267L999,340L1035,303Z" fill="#bc296c" stroke="#bc296c" stroke-width="1.51" />
  <path d="M950,-30L967,39L1030,-13Z" fill="#c37890" stroke="#c37890" stroke-width="1.51" />
  <path d="M934,464L971,487L1031,427Z" fill="#ac064a" stroke="#ac064a" stroke-width="1.51" />
  <path d="M945,342L934,464L1031,427Z" fill="#b80d54" stroke="#b80d54" stroke-width="1.51" />
  <path d="M926,267L945,342L999,340Z" fill="#c2266c" stroke="#c2266c" stroke-width="1.51" />
  <path d="M957,144L926,231L1013,232Z" fill="#bb4b7e" stroke="#bb4b7e" stroke-width="1.51" />
  <path d="M926,231L926,267L1013,232Z" fill="#c03f7a" stroke="#c03f7a" stroke-width="1.51" />
  <path d="M927,-98L950,-30L1005,-89Z" fill="#ce8497" stroke="#ce8497" stroke-width="1.51" />
  <path d="M892,522L941,593L971,487Z" fill="#9e0245" stroke="#9e0245" stroke-width="1.51" />
  <path d="M971,487L941,593L1000,519Z" fill="#980043" stroke="#980043" stroke-width="1.51" />
  <path d="M889,77L957,144L967,39Z" fill="#c1688b" stroke="#c1688b" stroke-width="1.51" />
  <path d="M853,383L934,464L945,342Z" fill="#c3135b" stroke="#c3135b" stroke-width="1.51" />
  <path d="M900,225L926,231L957,144Z" fill="#c24f80" stroke="#c24f80" stroke-width="1.51" />
  <path d="M950,-30L887,-9L967,39Z" fill="#cb7b94" stroke="#cb7b94" stroke-width="1.51" />
  <path d="M934,464L892,522L971,487Z" fill="#ab0549" stroke="#ab0549" stroke-width="1.51" />
  <path d="M853,383L847,413L934,464Z" fill="#c61157" stroke="#c61157" stroke-width="1.51" />
  <path d="M892,522L898,586L941,593Z" fill="#9a0340" stroke="#9a0340" stroke-width="1.51" />
  <path d="M887,-9L889,77L967,39Z" fill="#cb7592" stroke="#cb7592" stroke-width="1.51" />
  <path d="M926,267L874,289L945,342Z" fill="#c92f72" stroke="#c92f72" stroke-width="1.51" />
  <path d="M847,114L900,225L957,144Z" fill="#c35b86" stroke="#c35b86" stroke-width="1.51" />
  <path d="M889,77L847,114L957,144Z" fill="#c7668b" stroke="#c7668b" stroke-width="1.51" />
  <path d="M927,-98L887,-9L950,-30Z" fill="#d38499" stroke="#d38499" stroke-width="1.51" />
  <path d="M874,289L853,383L945,342Z" fill="#ce1e6c" stroke="#ce1e6c" stroke-width="1.51" />
  <path d="M182,-114L267,-100L439,-108Z" fill="#e0c7e1" stroke="#e0c7e1" stroke-width="1.51" />
  <path d="M858,-97L887,-9L927,-98Z" fill="#da889b" stroke="#da889b" stroke-width="1.51" />
  <path d="M109,580L-27,584L228,594Z" fill="#b26f83" stroke="#b26f83" stroke-width="1.51" />
  <path d="M847,413L892,522L934,464Z" fill="#b90b4e" stroke="#b90b4e" stroke-width="1.51" />
  <path d="M900,225L926,267L926,231Z" fill="#c6427c" stroke="#c6427c" stroke-width="1.51" />
  <path d="M900,225L874,289L926,267Z" fill="#ca3c7a" stroke="#ca3c7a" stroke-width="1.51" />
  <path d="M802,201L792,265L874,289Z" fill="#d84381" stroke="#d84381" stroke-width="1.51" />
  <path d="M858,-97L802,-35L887,-9Z" fill="#e0899d" stroke="#e0899d" stroke-width="1.51" />
  <path d="M887,-9L808,52L889,77Z" fill="#d47895" stroke="#d47895" stroke-width="1.51" />
  <path d="M847,413L821,509L892,522Z" fill="#bb0c4f" stroke="#bb0c4f" stroke-width="1.51" />
  <path d="M892,522L815,576L898,586Z" fill="#a20543" stroke="#a20543" stroke-width="1.51" />
  <path d="M802,201L874,289L900,225Z" fill="#d14680" stroke="#d14680" stroke-width="1.51" />
  <path d="M847,114L802,201L900,225Z" fill="#cd5987" stroke="#cd5987" stroke-width="1.51" />
  <path d="M821,509L815,576L892,522Z" fill="#ae064a" stroke="#ae064a" stroke-width="1.51" />
  <path d="M794,346L853,383L874,289Z" fill="#d71f6f" stroke="#d71f6f" stroke-width="1.51" />
  <path d="M802,-35L808,52L887,-9Z" fill="#dd819a" stroke="#dd819a" stroke-width="1.51" />
  <path d="M808,52L847,114L889,77Z" fill="#d27091" stroke="#d27091" stroke-width="1.51" />
  <path d="M821,414L821,509L847,413Z" fill="#c91154" stroke="#c91154" stroke-width="1.51" />
  <path d="M792,265L794,346L874,289Z" fill="#da3378" stroke="#da3378" stroke-width="1.51" />
  <path d="M439,-108L581,-74L635,-80Z" fill="#eea5cb" stroke="#eea5cb" stroke-width="1.51" />
  <path d="M808,52L794,111L847,114Z" fill="#d76f93" stroke="#d76f93" stroke-width="1.51" />
  <path d="M794,111L802,201L847,114Z" fill="#d3658e" stroke="#d3658e" stroke-width="1.51" />
  <path d="M805,-104L802,-35L858,-97Z" fill="#e88fa1" stroke="#e88fa1" stroke-width="1.51" />
  <path d="M821,414L847,413L853,383Z" fill="#cf155e" stroke="#cf155e" stroke-width="1.51" />
  <path d="M794,346L821,414L853,383Z" fill="#d51965" stroke="#d51965" stroke-width="1.51" />
  <path d="M743,485L821,509L821,414Z" fill="#c61156" stroke="#c61156" stroke-width="1.51" />
  <path d="M794,111L736,161L802,201Z" fill="#d46393" stroke="#d46393" stroke-width="1.51" />
  <path d="M635,-80L736,-62L805,-104Z" fill="#ef94b2" stroke="#ef94b2" stroke-width="1.51" />
  <path d="M802,-35L718,-10L808,52Z" fill="#e385a3" stroke="#e385a3" stroke-width="1.51" />
  <path d="M718,-10L746,62L808,52Z" fill="#e07fa3" stroke="#e07fa3" stroke-width="1.51" />
  <path d="M743,485L815,576L821,509Z" fill="#b70b51" stroke="#b70b51" stroke-width="1.51" />
  <path d="M794,346L741,427L821,414Z" fill="#d61a67" stroke="#d61a67" stroke-width="1.51" />
  <path d="M741,427L743,485L821,414Z" fill="#d1165d" stroke="#d1165d" stroke-width="1.51" />
  <path d="M720,383L741,427L794,346Z" fill="#db1e6f" stroke="#db1e6f" stroke-width="1.51" />
  <path d="M736,-62L802,-35L805,-104Z" fill="#ea90a7" stroke="#ea90a7" stroke-width="1.51" />
  <path d="M746,62L794,111L808,52Z" fill="#da759a" stroke="#da759a" stroke-width="1.51" />
  <path d="M743,485L702,592L815,576Z" fill="#b20e52" stroke="#b20e52" stroke-width="1.51" />
  <path d="M792,265L732,262L794,346Z" fill="#dd3881" stroke="#dd3881" stroke-width="1.51" />
  <path d="M732,262L792,265L802,201Z" fill="#db498a" stroke="#db498a" stroke-width="1.51" />
  <path d="M713,216L732,262L802,201Z" fill="#dc5090" stroke="#dc5090" stroke-width="1.51" />
  <path d="M736,161L713,216L802,201Z" fill="#d95a94" stroke="#d95a94" stroke-width="1.51" />
  <path d="M736,-62L718,-10L802,-35Z" fill="#e98eaa" stroke="#e98eaa" stroke-width="1.51" />
  <path d="M732,262L720,383L794,346Z" fill="#e02a7d" stroke="#e02a7d" stroke-width="1.51" />
  <path d="M746,62L736,161L794,111Z" fill="#d96e9b" stroke="#d96e9b" stroke-width="1.51" />
  <path d="M662,280L663,376L720,383Z" fill="#e52786" stroke="#e52786" stroke-width="1.51" />
  <path d="M662,280L720,383L732,262Z" fill="#e33689" stroke="#e33689" stroke-width="1.51" />
  <path d="M635,494L702,592L743,485Z" fill="#bf1461" stroke="#bf1461" stroke-width="1.51" />
  <path d="M741,427L665,424L743,485Z" fill="#d41965" stroke="#d41965" stroke-width="1.51" />
  <path d="M718,-10L628,89L746,62Z" fill="#e280ac" stroke="#e280ac" stroke-width="1.51" />
  <path d="M644,152L736,161L746,62Z" fill="#db6ea2" stroke="#db6ea2" stroke-width="1.51" />
  <path d="M628,89L644,152L746,62Z" fill="#df75ab" stroke="#df75ab" stroke-width="1.51" />
  <path d="M665,424L635,494L743,485Z" fill="#d01a69" stroke="#d01a69" stroke-width="1.51" />
  <path d="M720,383L665,424L741,427Z" fill="#db1e6f" stroke="#db1e6f" stroke-width="1.51" />
  <path d="M660,-25L628,89L718,-10Z" fill="#e888b4" stroke="#e888b4" stroke-width="1.51" />
  <path d="M644,152L713,216L736,161Z" fill="#db629f" stroke="#db629f" stroke-width="1.51" />
  <path d="M660,-25L718,-10L736,-62Z" fill="#ec90b3" stroke="#ec90b3" stroke-width="1.51" />
  <path d="M635,-80L660,-25L736,-62Z" fill="#ef94b9" stroke="#ef94b9" stroke-width="1.51" />
  <path d="M713,216L675,227L732,262Z" fill="#df4f96" stroke="#df4f96" stroke-width="1.51" />
  <path d="M675,227L662,280L732,262Z" fill="#e24996" stroke="#e24996" stroke-width="1.51" />
  <path d="M635,494L667,608L702,592Z" fill="#b5145d" stroke="#b5145d" stroke-width="1.51" />
  <path d="M644,152L675,227L713,216Z" fill="#de5ca0" stroke="#de5ca0" stroke-width="1.51" />
  <path d="M663,376L665,424L720,383Z" fill="#df2278" stroke="#df2278" stroke-width="1.51" />
  <path d="M635,494L601,532L667,608Z" fill="#bb1e66" stroke="#bb1e66" stroke-width="1.51" />
  <path d="M589,77L628,89L660,-25Z" fill="#e486b7" stroke="#e486b7" stroke-width="1.51" />
  <path d="M591,210L579,265L662,280Z" fill="#e254a2" stroke="#e254a2" stroke-width="1.51" />
  <path d="M662,280L583,350L663,376Z" fill="#e7338e" stroke="#e7338e" stroke-width="1.51" />
  <path d="M601,532L587,612L667,608Z" fill="#b0205f" stroke="#b0205f" stroke-width="1.51" />
  <path d="M591,210L662,280L675,227Z" fill="#e253a0" stroke="#e253a0" stroke-width="1.51" />
  <path d="M644,152L591,210L675,227Z" fill="#de61a6" stroke="#de61a6" stroke-width="1.51" />
  <path d="M563,-34L589,77L660,-25Z" fill="#e891be" stroke="#e891be" stroke-width="1.51" />
  <path d="M579,265L583,350L662,280Z" fill="#e54799" stroke="#e54799" stroke-width="1.51" />
  <path d="M663,376L582,421L665,424Z" fill="#de297b" stroke="#de297b" stroke-width="1.51" />
  <path d="M582,421L635,494L665,424Z" fill="#d82772" stroke="#d82772" stroke-width="1.51" />
  <path d="M583,350L582,421L663,376Z" fill="#e13285" stroke="#e13285" stroke-width="1.51" />
  <path d="M635,-80L581,-74L660,-25Z" fill="#f09ac1" stroke="#f09ac1" stroke-width="1.51" />
  <path d="M581,-74L563,-34L660,-25Z" fill="#ed9bc3" stroke="#ed9bc3" stroke-width="1.51" />
  <path d="M628,89L556,116L644,152Z" fill="#dd78b2" stroke="#dd78b2" stroke-width="1.51" />
  <path d="M556,116L591,210L644,152Z" fill="#da71af" stroke="#da71af" stroke-width="1.51" />
  <path d="M439,-108L527,-62L581,-74Z" fill="#eca8d0" stroke="#eca8d0" stroke-width="1.51" />
  <path d="M589,77L556,116L628,89Z" fill="#de80b6" stroke="#de80b6" stroke-width="1.51" />
  <path d="M582,421L601,532L635,494Z" fill="#cd2a71" stroke="#cd2a71" stroke-width="1.51" />
  <path d="M483,417L484,539L582,421Z" fill="#d23f7e" stroke="#d23f7e" stroke-width="1.51" />
  <path d="M579,265L527,334L583,350Z" fill="#e4499b" stroke="#e4499b" stroke-width="1.51" />
  <path d="M524,576L414,608L587,612Z" fill="#aa3668" stroke="#aa3668" stroke-width="1.51" />
  <path d="M563,-34L526,81L589,77Z" fill="#e18fc0" stroke="#e18fc0" stroke-width="1.51" />
  <path d="M556,116L524,159L591,210Z" fill="#d976b4" stroke="#d976b4" stroke-width="1.51" />
  <path d="M582,421L484,539L601,532Z" fill="#c83475" stroke="#c83475" stroke-width="1.51" />
  <path d="M484,539L524,576L601,532Z" fill="#b8346f" stroke="#b8346f" stroke-width="1.51" />
  <path d="M524,576L587,612L601,532Z" fill="#b22c66" stroke="#b22c66" stroke-width="1.51" />
  <path d="M527,334L582,421L583,350Z" fill="#e23d8e" stroke="#e23d8e" stroke-width="1.51" />
  <path d="M476,186L579,265L591,210Z" fill="#de66ad" stroke="#de66ad" stroke-width="1.51" />
  <path d="M524,159L476,186L591,210Z" fill="#da73b4" stroke="#da73b4" stroke-width="1.51" />
  <path d="M498,-39L526,81L563,-34Z" fill="#e49ac8" stroke="#e49ac8" stroke-width="1.51" />
  <path d="M527,334L483,417L582,421Z" fill="#df428c" stroke="#df428c" stroke-width="1.51" />
  <path d="M526,81L556,116L589,77Z" fill="#dd85bb" stroke="#dd85bb" stroke-width="1.51" />
  <path d="M493,312L527,334L579,265Z" fill="#e352a1" stroke="#e352a1" stroke-width="1.51" />
  <path d="M527,-62L563,-34L581,-74Z" fill="#eca2c9" stroke="#eca2c9" stroke-width="1.51" />
  <path d="M476,186L493,312L579,265Z" fill="#e062ad" stroke="#e062ad" stroke-width="1.51" />
  <path d="M527,-62L498,-39L563,-34Z" fill="#e9a4cc" stroke="#e9a4cc" stroke-width="1.51" />
  <path d="M526,81L524,159L556,116Z" fill="#da82bb" stroke="#da82bb" stroke-width="1.51" />
  <path d="M483,417L425,509L484,539Z" fill="#c8477f" stroke="#c8477f" stroke-width="1.51" />
  <path d="M476,186L417,298L493,312Z" fill="#de67af" stroke="#de67af" stroke-width="1.51" />
  <path d="M434,-39L414,47L498,-39Z" fill="#e0a8d0" stroke="#e0a8d0" stroke-width="1.51" />
  <path d="M484,539L414,608L524,576Z" fill="#b03e70" stroke="#b03e70" stroke-width="1.51" />
  <path d="M401,165L476,186L526,81Z" fill="#d485bf" stroke="#d485bf" stroke-width="1.51" />
  <path d="M414,47L401,165L526,81Z" fill="#d691c5" stroke="#d691c5" stroke-width="1.51" />
  <path d="M498,-39L414,47L526,81Z" fill="#de9bca" stroke="#de9bca" stroke-width="1.51" />
  <path d="M476,186L524,159L526,81Z" fill="#d780bc" stroke="#d780bc" stroke-width="1.51" />
  <path d="M493,312L431,360L527,334Z" fill="#e3529f" stroke="#e3529f" stroke-width="1.51" />
  <path d="M431,360L483,417L527,334Z" fill="#e04e96" stroke="#e04e96" stroke-width="1.51" />
  <path d="M439,-108L498,-39L527,-62Z" fill="#e9abd2" stroke="#e9abd2" stroke-width="1.51" />
  <path d="M402,187L417,298L476,186Z" fill="#d978b8" stroke="#d978b8" stroke-width="1.51" />
  <path d="M402,424L425,509L483,417Z" fill="#d24f84" stroke="#d24f84" stroke-width="1.51" />
  <path d="M439,-108L434,-39L498,-39Z" fill="#e6aed4" stroke="#e6aed4" stroke-width="1.51" />
  <path d="M417,298L431,360L493,312Z" fill="#e15ca5" stroke="#e15ca5" stroke-width="1.51" />
  <path d="M267,-100L334,-76L439,-108Z" fill="#dfc0de" stroke="#dfc0de" stroke-width="1.51" />
  <path d="M431,360L402,424L483,417Z" fill="#da5490" stroke="#da5490" stroke-width="1.51" />
  <path d="M425,509L414,608L484,539Z" fill="#b44576" stroke="#b44576" stroke-width="1.51" />
  <path d="M401,165L402,187L476,186Z" fill="#d383be" stroke="#d383be" stroke-width="1.51" />
  <path d="M376,164L401,165L414,47Z" fill="#d093c6" stroke="#d093c6" stroke-width="1.51" />
  <path d="M333,77L376,164L414,47Z" fill="#cf9cca" stroke="#cf9cca" stroke-width="1.51" />
  <path d="M402,187L352,212L417,298Z" fill="#d67bba" stroke="#d67bba" stroke-width="1.51" />
  <path d="M350,561L414,608L425,509Z" fill="#b04c78" stroke="#b04c78" stroke-width="1.51" />
  <path d="M377,374L402,424L431,360Z" fill="#da5b97" stroke="#da5b97" stroke-width="1.51" />
  <path d="M350,-33L414,47L434,-39Z" fill="#dbaed4" stroke="#dbaed4" stroke-width="1.51" />
  <path d="M334,-76L350,-33L434,-39Z" fill="#ddb8d9" stroke="#ddb8d9" stroke-width="1.51" />
  <path d="M334,-76L434,-39L439,-108Z" fill="#e2b7d9" stroke="#e2b7d9" stroke-width="1.51" />
  <path d="M402,424L344,441L425,509Z" fill="#ce5787" stroke="#ce5787" stroke-width="1.51" />
  <path d="M417,298L377,374L431,360Z" fill="#df5ea3" stroke="#df5ea3" stroke-width="1.51" />
  <path d="M339,314L377,374L417,298Z" fill="#dd67a9" stroke="#dd67a9" stroke-width="1.51" />
  <path d="M352,212L339,314L417,298Z" fill="#d974b4" stroke="#d974b4" stroke-width="1.51" />
  <path d="M333,535L350,561L425,509Z" fill="#b6537f" stroke="#b6537f" stroke-width="1.51" />
  <path d="M344,441L333,535L425,509Z" fill="#c15784" stroke="#c15784" stroke-width="1.51" />
  <path d="M350,561L273,597L414,608Z" fill="#a65275" stroke="#a65275" stroke-width="1.51" />
  <path d="M350,-33L333,77L414,47Z" fill="#d5aad2" stroke="#d5aad2" stroke-width="1.51" />
  <path d="M377,374L344,441L402,424Z" fill="#d65e91" stroke="#d65e91" stroke-width="1.51" />
  <path d="M401,165L376,164L402,187Z" fill="#cf8ac1" stroke="#cf8ac1" stroke-width="1.51" />
  <path d="M376,164L352,212L402,187Z" fill="#d088c0" stroke="#d088c0" stroke-width="1.51" />
  <path d="M298,237L339,314L352,212Z" fill="#d67fbb" stroke="#d67fbb" stroke-width="1.51" />
  <path d="M333,77L295,156L376,164Z" fill="#cb99ca" stroke="#cb99ca" stroke-width="1.51" />
  <path d="M275,389L344,441L377,374Z" fill="#d66698" stroke="#d66698" stroke-width="1.51" />
  <path d="M339,314L275,389L377,374Z" fill="#db69a4" stroke="#db69a4" stroke-width="1.51" />
  <path d="M295,156L352,212L376,164Z" fill="#cc8fc4" stroke="#cc8fc4" stroke-width="1.51" />
  <path d="M252,-32L274,86L333,77Z" fill="#d3b1d5" stroke="#d3b1d5" stroke-width="1.51" />
  <path d="M274,86L295,156L333,77Z" fill="#cea3ce" stroke="#cea3ce" stroke-width="1.51" />
  <path d="M251,508L333,535L344,441Z" fill="#c25f88" stroke="#c25f88" stroke-width="1.51" />
  <path d="M275,389L273,413L344,441Z" fill="#d66996" stroke="#d66996" stroke-width="1.51" />
  <path d="M252,-32L333,77L350,-33Z" fill="#d6b6d8" stroke="#d6b6d8" stroke-width="1.51" />
  <path d="M295,156L298,237L352,212Z" fill="#d08dc3" stroke="#d08dc3" stroke-width="1.51" />
  <path d="M298,237L257,282L339,314Z" fill="#d97eb8" stroke="#d97eb8" stroke-width="1.51" />
  <path d="M273,413L251,508L344,441Z" fill="#cf668d" stroke="#cf668d" stroke-width="1.51" />
  <path d="M333,535L273,597L350,561Z" fill="#ad577c" stroke="#ad577c" stroke-width="1.51" />
  <path d="M334,-76L252,-32L350,-33Z" fill="#dbbfdd" stroke="#dbbfdd" stroke-width="1.51" />
  <path d="M257,282L275,389L339,314Z" fill="#dd74ae" stroke="#dd74ae" stroke-width="1.51" />
  <path d="M251,508L273,597L333,535Z" fill="#b35d82" stroke="#b35d82" stroke-width="1.51" />
  <path d="M267,-100L252,-32L334,-76Z" fill="#ddc5e0" stroke="#ddc5e0" stroke-width="1.51" />
  <path d="M251,508L228,594L273,597Z" fill="#af5f7f" stroke="#af5f7f" stroke-width="1.51" />
  <path d="M252,-32L187,61L274,86Z" fill="#d5b7d9" stroke="#d5b7d9" stroke-width="1.51" />
  <path d="M257,282L190,341L275,389Z" fill="#e078af" stroke="#e078af" stroke-width="1.51" />
  <path d="M274,86L210,109L295,156Z" fill="#cfa6d0" stroke="#cfa6d0" stroke-width="1.51" />
  <path d="M295,156L192,218L298,237Z" fill="#d392c5" stroke="#d392c5" stroke-width="1.51" />
  <path d="M192,218L257,282L298,237Z" fill="#d98ac1" stroke="#d98ac1" stroke-width="1.51" />
  <path d="M210,109L192,218L295,156Z" fill="#cea0cd" stroke="#cea0cd" stroke-width="1.51" />
  <path d="M209,-37L187,61L252,-32Z" fill="#dac3df" stroke="#dac3df" stroke-width="1.51" />
  <path d="M192,218L200,272L257,282Z" fill="#db8cc1" stroke="#db8cc1" stroke-width="1.51" />
  <path d="M209,-37L252,-32L267,-100Z" fill="#dec8e2" stroke="#dec8e2" stroke-width="1.51" />
  <path d="M197,489L251,508L273,413Z" fill="#cc6a8e" stroke="#cc6a8e" stroke-width="1.51" />
  <path d="M183,431L197,489L273,413Z" fill="#d57093" stroke="#d57093" stroke-width="1.51" />
  <path d="M187,61L210,109L274,86Z" fill="#d1b0d5" stroke="#d1b0d5" stroke-width="1.51" />
  <path d="M183,431L273,413L275,389Z" fill="#d97099" stroke="#d97099" stroke-width="1.51" />
  <path d="M190,341L183,431L275,389Z" fill="#dd76a2" stroke="#dd76a2" stroke-width="1.51" />
  <path d="M200,272L190,341L257,282Z" fill="#df83b9" stroke="#df83b9" stroke-width="1.51" />
  <path d="M182,-114L209,-37L267,-100Z" fill="#e1cee5" stroke="#e1cee5" stroke-width="1.51" />
  <path d="M197,489L228,594L251,508Z" fill="#bb6688" stroke="#bb6688" stroke-width="1.51" />
  <path d="M133,119L149,218L192,218Z" fill="#d5a3ce" stroke="#d5a3ce" stroke-width="1.51" />
  <path d="M106,528L109,580L197,489Z" fill="#bf708d" stroke="#bf708d" stroke-width="1.51" />
  <path d="M147,1L187,61L209,-37Z" fill="#dac4e0" stroke="#dac4e0" stroke-width="1.51" />
  <path d="M133,119L192,218L210,109Z" fill="#cfa9d1" stroke="#cfa9d1" stroke-width="1.51" />
  <path d="M197,489L109,580L228,594Z" fill="#b66985" stroke="#b66985" stroke-width="1.51" />
  <path d="M135,380L183,431L190,341Z" fill="#e07ca6" stroke="#e07ca6" stroke-width="1.51" />
  <path d="M130,308L190,341L200,272Z" fill="#e187b9" stroke="#e187b9" stroke-width="1.51" />
  <path d="M182,-114L125,-64L209,-37Z" fill="#e2d2e7" stroke="#e2d2e7" stroke-width="1.51" />
  <path d="M187,61L133,119L210,109Z" fill="#d3b3d7" stroke="#d3b3d7" stroke-width="1.51" />
  <path d="M125,-64L147,1L209,-37Z" fill="#dfcfe6" stroke="#dfcfe6" stroke-width="1.51" />
  <path d="M125,76L133,119L187,61Z" fill="#d5b8d9" stroke="#d5b8d9" stroke-width="1.51" />
  <path d="M183,431L118,424L197,489Z" fill="#d77695" stroke="#d77695" stroke-width="1.51" />
  <path d="M192,218L149,218L200,272Z" fill="#da95c6" stroke="#da95c6" stroke-width="1.51" />
  <path d="M149,218L130,308L200,272Z" fill="#df91c3" stroke="#df91c3" stroke-width="1.51" />
  <path d="M118,424L106,528L197,489Z" fill="#cf7692" stroke="#cf7692" stroke-width="1.51" />
  <path d="M147,1L125,76L187,61Z" fill="#d7c0de" stroke="#d7c0de" stroke-width="1.51" />
  <path d="M130,308L135,380L190,341Z" fill="#e582b3" stroke="#e582b3" stroke-width="1.51" />
  <path d="M33,-100L125,-64L182,-114Z" fill="#e7dbec" stroke="#e7dbec" stroke-width="1.51" />
  <path d="M135,380L118,424L183,431Z" fill="#de7d9f" stroke="#de7d9f" stroke-width="1.51" />
  <path d="M25,561L-27,584L109,580Z" fill="#ba7989" stroke="#ba7989" stroke-width="1.51" />
  <path d="M41,458L106,528L118,424Z" fill="#d57e97" stroke="#d57e97" stroke-width="1.51" />
  <path d="M73,195L36,290L130,308Z" fill="#e49bc8" stroke="#e49bc8" stroke-width="1.51" />
  <path d="M46,50L125,76L147,1Z" fill="#dbc7e1" stroke="#dbc7e1" stroke-width="1.51" />
  <path d="M125,-64L33,10L147,1Z" fill="#e1d4e8" stroke="#e1d4e8" stroke-width="1.51" />
  <path d="M133,119L73,195L149,218Z" fill="#d6aad2" stroke="#d6aad2" stroke-width="1.51" />
  <path d="M73,195L130,308L149,218Z" fill="#df9cca" stroke="#df9cca" stroke-width="1.51" />
  <path d="M130,308L55,374L135,380Z" fill="#e787b3" stroke="#e787b3" stroke-width="1.51" />
  <path d="M33,10L46,50L147,1Z" fill="#dfcfe5" stroke="#dfcfe5" stroke-width="1.51" />
  <path d="M43,131L73,195L133,119Z" fill="#d5b4d8" stroke="#d5b4d8" stroke-width="1.51" />
  <path d="M55,374L118,424L135,380Z" fill="#e384a7" stroke="#e384a7" stroke-width="1.51" />
  <path d="M125,76L43,131L133,119Z" fill="#d7badb" stroke="#d7badb" stroke-width="1.51" />
  <path d="M36,290L55,374L130,308Z" fill="#ea90bc" stroke="#ea90bc" stroke-width="1.51" />
  <path d="M46,50L43,131L125,76Z" fill="#d9c2de" stroke="#d9c2de" stroke-width="1.51" />
  <path d="M33,-100L33,10L125,-64Z" fill="#e6dded" stroke="#e6dded" stroke-width="1.51" />
  <path d="M55,374L41,458L118,424Z" fill="#e386a1" stroke="#e386a1" stroke-width="1.51" />
  <path d="M41,458L34,538L106,528Z" fill="#cb7d95" stroke="#cb7d95" stroke-width="1.51" />
  <path d="M106,528L34,538L109,580Z" fill="#be768c" stroke="#be768c" stroke-width="1.51" />
  <path d="M34,538L25,561L109,580Z" fill="#bd788b" stroke="#bd788b" stroke-width="1.51" />
  <path d="M-5,-78L33,10L33,-100Z" fill="#e9e3f0" stroke="#e9e3f0" stroke-width="1.51" />
  <path d="M2,512L34,538L41,458Z" fill="#d08297" stroke="#d08297" stroke-width="1.51" />
  <path d="M36,290L-7,370L55,374Z" fill="#ee92ba" stroke="#ee92ba" stroke-width="1.51" />
  <path d="M-4,452L41,458L55,374Z" fill="#e58aa1" stroke="#e58aa1" stroke-width="1.51" />
  <path d="M43,131L-14,222L73,195Z" fill="#dcb3d6" stroke="#dcb3d6" stroke-width="1.51" />
  <path d="M-14,222L36,290L73,195Z" fill="#e4a8d0" stroke="#e4a8d0" stroke-width="1.51" />
  <path d="M-5,-78L-5,14L33,10Z" fill="#e6dfee" stroke="#e6dfee" stroke-width="1.51" />
  <path d="M-104,-104L-5,-78L33,-100Z" fill="#efeaf4" stroke="#efeaf4" stroke-width="1.51" />
  <path d="M-14,222L-19,280L36,290Z" fill="#e9a4cd" stroke="#e9a4cd" stroke-width="1.51" />
  <path d="M-16,119L-14,222L43,131Z" fill="#dabbdb" stroke="#dabbdb" stroke-width="1.51" />
  <path d="M-16,119L43,131L46,50Z" fill="#dcc5e0" stroke="#dcc5e0" stroke-width="1.51" />
  <path d="M-37,82L-16,119L46,50Z" fill="#decae3" stroke="#decae3" stroke-width="1.51" />
  <path d="M-7,370L-4,452L55,374Z" fill="#e98eaa" stroke="#e98eaa" stroke-width="1.51" />
  <path d="M-19,280L-7,370L36,290Z" fill="#ed9ac2" stroke="#ed9ac2" stroke-width="1.51" />
  <path d="M-4,452L2,512L41,458Z" fill="#da869b" stroke="#da869b" stroke-width="1.51" />
  <path d="M33,10L-5,14L46,50Z" fill="#e2d4e8" stroke="#e2d4e8" stroke-width="1.51" />
  <path d="M-5,14L-37,82L46,50Z" fill="#e0d1e6" stroke="#e0d1e6" stroke-width="1.51" />
  <path d="M2,512L25,561L34,538Z" fill="#c57e93" stroke="#c57e93" stroke-width="1.51" />
  <path d="M-16,119L-79,164L-14,222Z" fill="#ddbbdb" stroke="#ddbbdb" stroke-width="1.51" />
  <path d="M2,512L-27,584L25,561Z" fill="#c27e90" stroke="#c27e90" stroke-width="1.51" />
  <path d="M-19,280L-75,335L-7,370Z" fill="#f099c0" stroke="#f099c0" stroke-width="1.51" />
  <path d="M-80,10L-5,14L-5,-78Z" fill="#e8e1ef" stroke="#e8e1ef" stroke-width="1.51" />
  <path d="M-7,370L-112,457L-4,452Z" fill="#e98fa4" stroke="#e98fa4" stroke-width="1.51" />
  <path d="M-4,452L-78,528L2,512Z" fill="#d48699" stroke="#d48699" stroke-width="1.51" />
  <path d="M-78,528L-27,584L2,512Z" fill="#c78194" stroke="#c78194" stroke-width="1.51" />
  <path d="M-79,164L-87,206L-14,222Z" fill="#e3b6d8" stroke="#e3b6d8" stroke-width="1.51" />
  <path d="M-75,335L-112,457L-7,370Z" fill="#ef94b0" stroke="#ef94b0" stroke-width="1.51" />
  <path d="M-80,10L-37,82L-5,14Z" fill="#e4d6e9" stroke="#e4d6e9" stroke-width="1.51" />
  <path d="M-104,-104L-80,10L-5,-78Z" fill="#ede8f3" stroke="#ede8f3" stroke-width="1.51" />
  <path d="M-112,457L-78,528L-4,452Z" fill="#dc8a9d" stroke="#dc8a9d" stroke-width="1.51" />
  <path d="M-78,528L-85,569L-27,584Z" fill="#c4818f" stroke="#c4818f" stroke-width="1.51" />
  <path d="M-87,206L-102,274L-19,280Z" fill="#ebaad2" stroke="#ebaad2" stroke-width="1.51" />
  <path d="M-87,206L-19,280L-14,222Z" fill="#e8acd3" stroke="#e8acd3" stroke-width="1.51" />
  <path d="M-37,82L-79,164L-16,119Z" fill="#dec5e0" stroke="#dec5e0" stroke-width="1.51" />
  <path d="M-102,274L-75,335L-19,280Z" fill="#efa1c8" stroke="#efa1c8" stroke-width="1.51" />
  <path d="M-127,85L-79,164L-37,82Z" fill="#e0c9e2" stroke="#e0c9e2" stroke-width="1.51" />
  <path d="M-80,10L-127,85L-37,82Z" fill="#e3d3e8" stroke="#e3d3e8" stroke-width="1.51" />
  <path d="M-102,274L-112,457L-75,335Z" fill="#f399bb" stroke="#f399bb" stroke-width="1.51" />
  <path d="M-104,-104L-127,85L-80,10Z" fill="#eae2f0" stroke="#eae2f0" stroke-width="1.51" />
  <path d="M-112,457L-85,569L-78,528Z" fill="#d08799" stroke="#d08799" stroke-width="1.51" />
  <path d="M-127,85L-87,206L-79,164Z" fill="#dfc2df" stroke="#dfc2df" stroke-width="1.51" />
  <path d="M-127,85L-102,274L-87,206Z" fill="#e5bbdb" stroke="#e5bbdb" stroke-width="1.51" />
  <path d="M-127,85L-112,457L-102,274Z" fill="#f0a9cf" stroke="#f0a9cf" stroke-width="1.51" />
</svg>
